<svg width="13" height="12" viewBox="0 0 13 12" fill="none" xmlns="http://www.w3.org/2000/svg">
<path d="M10.758 3.24453L2.26491 11.7376C2.08996 11.9125 1.8673 12 1.59692 12C1.32654 12 1.10388 11.9125 0.928929 11.7376C0.753979 11.5626 0.666504 11.34 0.666504 11.0696C0.666504 10.7992 0.753979 10.5765 0.928929 10.4016L9.42197 1.90855H2.16949C1.89911 1.90855 1.67263 1.81694 1.49004 1.63372C1.30746 1.4505 1.21585 1.22402 1.21521 0.954274C1.21458 0.684533 1.30619 0.458052 1.49004 0.274831C1.6739 0.0916104 1.90038 0 2.16949 0H11.7122C11.9826 0 12.2094 0.0916104 12.3926 0.274831C12.5758 0.458052 12.6671 0.684533 12.6665 0.954274V10.497C12.6665 10.7674 12.5749 10.9942 12.3917 11.1774C12.2084 11.3606 11.982 11.4519 11.7122 11.4513C11.4425 11.4507 11.216 11.359 11.0328 11.1765C10.8496 10.9939 10.758 10.7674 10.758 10.497V3.24453Z" fill="white"/>
</svg>
