<svg width="40" height="40" viewBox="0 0 40 40" fill="none" xmlns="http://www.w3.org/2000/svg">
<circle cx="20" cy="20" r="20" fill="#151515"/>
<path d="M19.2926 35V33.0853C19.2379 32.6568 19.0629 31.7341 18.8003 31.4715C18.5377 31.2089 18.2532 30.9609 18.1438 30.8697L17.6241 30.5415L17.1591 30.4047L16.8035 30.2953H16.2291C16.0011 30.2953 15.5124 30.3008 15.3811 30.3226C15.2499 30.3445 14.4511 30.4594 14.0682 30.5141L12.345 30.7329L11.032 30.8697H10.2661C10.0382 30.7785 9.56043 30.5579 9.4729 30.4047C9.38537 30.2515 9.25407 29.9944 9.19937 29.885C9.18113 29.7482 9.15013 29.4473 9.17202 29.3379L9.22673 28.3532C9.22673 28.262 9.15014 28.0031 8.84379 27.6967C8.53743 27.3904 8.55202 27.405 8.59761 27.4506L9.85585 26.8215C10.0291 26.6756 10.2771 26.3291 9.88321 26.1103L9.55497 25.9188L9.14468 25.8094L8.67967 25.7L8.32409 25.5906L8.13261 25.2897L8.05056 25.0709L8.15997 24.8794L8.35144 24.2503C8.39703 23.9676 8.32409 23.375 7.66761 23.2656L6.76496 23.0741C6.40938 22.9647 5.77479 22.5927 6.08114 21.98C6.38749 21.3673 7.57644 19.0988 8.13263 18.0411C8.3241 17.6947 8.53745 16.7118 7.8591 15.552C7.76792 14.9047 7.69498 13.3364 8.13263 12.2423C9.0991 10.2729 11.7979 6.26841 14.8615 6.00582V9.47965C15.1441 10.0358 15.8626 10.8145 16.4753 9.47965V7.647C16.7853 6.44347 18.0782 4.27711 20.7697 5.23994C21.7271 5.5317 23.4394 6.78812 22.6297 9.47965C22.42 9.93553 21.6614 10.9512 20.3047 11.367C19.9035 11.6952 19.3856 12.4611 20.5235 12.8988C21.6614 13.3364 23.04 12.06 23.5871 11.367C23.9791 10.9841 24.7085 9.42495 24.4897 6.252C24.4715 6.08788 24.5499 5.80888 25.0094 6.00582C25.469 6.20276 25.7115 6.37964 25.7753 6.44347V10.5738C25.4471 11.2029 25.1188 12.6307 26.4318 13.3091C27.0883 13.5644 28.4997 13.7467 28.8936 12.4338C29.0121 12.0964 29.1343 11.2521 28.6747 10.5738C28.5653 10.4188 28.2097 10.0759 27.6627 9.94465L27.5533 9.78053V7.97524C27.6171 7.88406 27.7721 7.71812 27.8815 7.78377C27.9909 7.84941 28.9118 8.75936 29.3586 9.20612C30.3797 10.4461 32.4604 13.4513 32.6136 15.552C32.6591 15.78 32.6956 16.2577 32.4768 16.3453H28.4833C28.1915 15.7982 27.2852 14.8408 25.9941 15.3879C25.4653 15.6797 24.528 16.5914 25.0094 17.9044C25.2556 18.4697 26.109 19.4307 27.5533 18.7523C27.7174 18.652 28.0894 18.4186 28.2644 18.2873H32.6136C32.7503 18.2873 33.0239 18.353 33.0239 18.6156C33.0239 18.9438 33.2427 23.7579 30.1518 27.3685C30.0788 27.3959 29.933 27.3959 29.933 27.177V22.1714C29.9238 21.752 29.5774 20.9132 28.2644 20.9132C26.9515 20.9132 25.4197 20.9132 24.818 20.9132C24.7177 20.3844 24.2052 19.3158 22.958 19.272C21.7107 19.2283 16.3659 19.2538 13.8494 19.272C13.6123 18.9894 12.8647 18.4897 11.7706 18.7523C11.26 18.962 10.3318 19.748 10.7038 21.2141C11.0594 21.907 12.1316 23.0358 13.5759 22.0073C13.74 21.8706 14.1065 21.504 14.2597 21.132H20.7971C20.9065 21.1229 21.1362 21.1867 21.18 21.515C21.2238 21.8432 21.1982 22.4906 21.18 22.7732C21.3259 23.2929 21.8857 24.2886 22.958 24.1135C23.3044 24.1591 24.1615 23.9767 24.818 22.8826H26.3771C26.4774 22.9009 26.6889 23.003 26.7327 23.2656C26.7764 23.5282 26.7509 27.642 26.7327 29.6662C26.7509 29.7938 26.7272 30.0983 26.4865 30.2953C26.2458 30.4922 25.5474 30.7603 25.2283 30.8697C25.0915 30.9518 24.818 31.001 24.818 30.5415C24.818 30.0819 24.818 27.87 24.818 26.8215C24.7359 26.4841 24.3365 25.8039 23.3956 25.782C22.4547 25.7602 20.1953 25.7729 19.1832 25.782C19.0921 25.7 18.8988 25.4921 18.855 25.317C18.5359 24.6514 17.5694 23.5282 16.2565 24.3597C15.9647 24.5694 15.3866 25.131 15.4085 25.7C15.3721 26.0282 15.3866 26.7503 15.7368 27.0129C15.8918 27.2682 16.3768 27.7679 17.0771 27.7241H21.3715C21.5265 27.7332 21.8584 27.8445 21.9459 28.2165V35" stroke="white"/>
</svg>
