<svg width="47" height="51" viewBox="0 0 47 51" fill="none" xmlns="http://www.w3.org/2000/svg">
<path d="M23.1544 51V47.8088C23.0632 47.0946 22.7714 45.5568 22.3338 45.1191C21.8961 44.6815 21.422 44.2681 21.2397 44.1162L20.3735 43.5691L19.5985 43.3412L19.0058 43.1588H18.0485C17.6686 43.1588 16.8541 43.1679 16.6352 43.2044C16.4164 43.2409 15.0852 43.4323 14.447 43.5235L11.5749 43.8882L9.3867 44.1162H8.11023C7.73032 43.9642 6.93405 43.5965 6.78816 43.3412C6.64228 43.0859 6.42346 42.6573 6.33228 42.475C6.30189 42.247 6.25022 41.7456 6.28669 41.5632L6.37788 39.922C6.37788 39.7701 6.25023 39.3385 5.73964 38.8279C5.22905 38.3173 5.25337 38.3416 5.32935 38.4176L7.42642 37.3691C7.71515 37.126 8.12848 36.5485 7.47201 36.1838L6.92495 35.8647L6.24113 35.6823L5.46612 35.5L4.87348 35.3176L4.55436 34.8161L4.41759 34.4514L4.59995 34.1323L4.91906 33.0838C4.99504 32.6127 4.87348 31.625 3.77936 31.4426L2.27494 31.1235C1.68229 30.9411 0.624643 30.3211 1.13523 29.3C1.64582 28.2788 3.62741 24.498 4.55438 22.7352C4.87349 22.1578 5.22908 20.5196 4.09849 18.5867C3.94653 17.5078 3.82496 14.894 4.55438 13.0705C6.16516 9.78815 10.6632 3.11401 15.7691 2.67637V8.46608C16.2402 9.39305 17.4376 10.6908 18.4588 8.46608V5.41167C18.9755 3.40578 21.1303 -0.204816 25.6162 1.39989C27.2118 1.88617 30.0656 3.98019 28.7162 8.46608C28.3667 9.22589 27.1024 10.9187 24.8412 11.6117C24.1726 12.1587 23.3094 13.4352 25.2059 14.1646C27.1024 14.894 29.4 12.7666 30.3118 11.6117C30.9652 10.9734 32.1809 8.37491 31.8162 3.08666C31.7858 2.81313 31.9165 2.34813 32.6824 2.67637C33.4483 3.0046 33.8525 3.29941 33.9589 3.40578V10.2896C33.4118 11.3382 32.8647 13.7179 35.053 14.8485C36.1471 15.2739 38.4994 15.5779 39.1559 13.3896C39.3535 12.8274 39.5571 11.4202 38.7912 10.2896C38.6089 10.0313 38.0162 9.45991 37.1044 9.24109L36.9221 8.96756V5.95873C37.0285 5.80677 37.2868 5.5302 37.4692 5.63961C37.6515 5.74902 39.1863 7.26559 39.9309 8.0102C41.6329 10.0769 45.1006 15.0855 45.3559 18.5867C45.4319 18.9666 45.4927 19.7629 45.128 19.9088H38.4721C37.9858 18.997 36.4753 17.4014 34.3236 18.3132C33.4422 18.7994 31.88 20.3191 32.6824 22.5073C33.0927 23.4495 34.515 25.0511 36.9221 23.9205C37.1956 23.7534 37.8156 23.3644 38.1074 23.1455H45.3559C45.5839 23.1455 46.0398 23.2549 46.0398 23.6926C46.0398 24.2396 46.4045 32.2632 41.253 38.2809C41.1314 38.3264 40.8883 38.3264 40.8883 37.9617V29.6191C40.8731 28.9201 40.2956 27.522 38.1074 27.522C35.9191 27.522 33.3662 27.522 32.3633 27.522C32.1961 26.6406 31.3421 24.8597 29.2633 24.7867C27.1844 24.7138 18.2765 24.7563 14.0823 24.7867C13.6872 24.3156 12.4412 23.4829 10.6176 23.9205C9.76664 24.27 8.21968 25.5799 8.83968 28.0235C9.43233 29.1784 11.2194 31.0597 13.6265 29.3455C13.9 29.1176 14.5109 28.5067 14.7662 27.8867H25.6618C25.8441 27.8715 26.2271 27.9779 26.3 28.525C26.373 29.072 26.3304 30.1509 26.3 30.622C26.5431 31.4882 27.4762 33.1476 29.2633 32.8558C29.8407 32.9318 31.2691 32.6279 32.3633 30.8044H34.9618C35.129 30.8348 35.4815 31.005 35.5544 31.4426C35.6274 31.8803 35.5848 38.7367 35.5544 42.1103C35.5848 42.323 35.5453 42.8306 35.1441 43.1588C34.743 43.487 33.5789 43.9338 33.0471 44.1162C32.8191 44.2529 32.3633 44.335 32.3633 43.5691C32.3633 42.8032 32.3633 39.1166 32.3633 37.3691C32.2265 36.8068 31.5609 35.6732 29.9927 35.6367C28.4244 35.6003 24.6588 35.6215 22.9721 35.6367C22.8201 35.5 22.4979 35.1535 22.425 34.8617C21.8931 33.7524 20.2824 31.8803 18.0941 33.2661C17.6078 33.6156 16.6444 34.5517 16.6809 35.5C16.6201 36.047 16.6444 37.2506 17.2279 37.6882C17.4863 38.1137 18.2947 38.9464 19.4618 38.8735H26.6191C26.8775 38.8887 27.4306 39.0741 27.5765 39.6941V51" stroke="white"/>
</svg>
