<svg width="32" height="32" viewBox="0 0 32 32" fill="none" xmlns="http://www.w3.org/2000/svg">
<g clip-path="url(#clip0_190_135)">
<path d="M16.0001 6.66667C15.6465 6.66667 15.3073 6.80715 15.0573 7.0572C14.8072 7.30724 14.6667 7.64638 14.6667 8.00001V13.3333C14.6667 13.687 14.8072 14.0261 15.0573 14.2761C15.3073 14.5262 15.6465 14.6667 16.0001 14.6667C16.3537 14.6667 16.6928 14.5262 16.9429 14.2761C17.1929 14.0261 17.3334 13.687 17.3334 13.3333V8.00001C17.3334 7.64638 17.1929 7.30724 16.9429 7.0572C16.6928 6.80715 16.3537 6.66667 16.0001 6.66667Z" fill="white"/>
<path fill-rule="evenodd" clip-rule="evenodd" d="M5.33337 10.6667C5.33337 7.83769 6.45718 5.12458 8.45757 3.12419C10.458 1.12381 13.1711 0 16 0C18.829 0 21.5421 1.12381 23.5425 3.12419C25.5429 5.12458 26.6667 7.83769 26.6667 10.6667V21.3333C26.6667 24.1623 25.5429 26.8754 23.5425 28.8758C21.5421 30.8762 18.829 32 16 32C13.1711 32 10.458 30.8762 8.45757 28.8758C6.45718 26.8754 5.33337 24.1623 5.33337 21.3333V10.6667ZM24 10.6667V21.3333C24 23.4551 23.1572 25.4899 21.6569 26.9902C20.1566 28.4905 18.1218 29.3333 16 29.3333C13.8783 29.3333 11.8435 28.4905 10.3432 26.9902C8.8429 25.4899 8.00004 23.4551 8.00004 21.3333V10.6667C8.00004 8.54494 8.8429 6.5101 10.3432 5.00981C11.8435 3.50952 13.8783 2.66667 16 2.66667C18.1218 2.66667 20.1566 3.50952 21.6569 5.00981C23.1572 6.5101 24 8.54494 24 10.6667Z" fill="white"/>
</g>
<defs>
<clipPath id="clip0_190_135">
<rect width="32" height="32" fill="white"/>
</clipPath>
</defs>
</svg>
