<svg width="8" height="8" viewBox="0 0 8 8" fill="none" xmlns="http://www.w3.org/2000/svg">
<path d="M6.77667 1.22336C6.71361 1.16075 6.63452 1.11673 6.54807 1.09615C6.46163 1.07557 6.37118 1.07922 6.28667 1.10669L1.41001 2.73336C1.31956 2.76202 1.23964 2.81684 1.18033 2.89089C1.12103 2.96495 1.085 3.05491 1.0768 3.14943C1.06859 3.24395 1.08858 3.33878 1.13424 3.42195C1.1799 3.50511 1.24919 3.57288 1.33334 3.61669L3.35667 4.61669L4.35667 6.64669C4.39687 6.72615 4.45837 6.79286 4.53431 6.83937C4.61025 6.88587 4.69763 6.91034 4.78667 6.91003H4.82001C4.91537 6.903 5.00642 6.86746 5.08132 6.80801C5.15622 6.74857 5.21151 6.66797 5.24001 6.57669L6.89001 1.71336C6.91947 1.62934 6.92446 1.53867 6.90439 1.45193C6.88433 1.36518 6.84004 1.28591 6.77667 1.22336ZM1.61667 3.19336L5.87334 1.77336L3.51001 4.13669L1.61667 3.19336ZM4.81001 6.38336L3.86334 4.49003L6.22667 2.12669L4.81001 6.38336Z" fill="white"/>
</svg>
