<svg width="10" height="10" viewBox="0 0 10 10" fill="none" xmlns="http://www.w3.org/2000/svg">
<path d="M4.69458 6.72489L6.54187 5.01427M6.54187 5.01427L4.69458 3.30365M6.54187 5.01427H1" stroke="white" stroke-linecap="round" stroke-linejoin="round"/>
<path d="M1.61575 3.87385V2.15867C1.61575 1.857 1.74482 1.56762 1.97472 1.35388C2.20461 1.14015 2.51659 1.01946 2.84235 1.01826L7.7389 1.00001C7.90068 0.999409 8.061 1.02833 8.2107 1.08512C8.36041 1.14192 8.49656 1.22547 8.61138 1.331C8.72621 1.43654 8.81745 1.56199 8.8799 1.70018C8.94235 1.83838 8.97479 1.98662 8.97535 2.13643L8.99998 7.85503C9.00063 8.00479 8.96942 8.1532 8.90812 8.29179C8.84683 8.43038 8.75666 8.55644 8.64276 8.66276C8.52886 8.76908 8.39346 8.85358 8.24429 8.91145C8.09512 8.96931 7.93511 8.9994 7.77338 9H2.84728C2.52066 9 2.20741 8.87985 1.97646 8.66598C1.7455 8.45211 1.61575 8.16204 1.61575 7.85959V6.15467" stroke="white" stroke-linecap="round" stroke-linejoin="round"/>
</svg>
